<svg xmlns="http://www.w3.org/2000/svg" width="88" height="88" viewBox="0 0 88 88">
  <g id="Group_21" data-name="Group 21" transform="translate(-997 -1245)">
    <rect id="Rectangle_15" data-name="Rectangle 15" width="88" height="88" rx="17" transform="translate(997 1245)" fill="#ffe4fd"/>
    <path id="Union_2" data-name="Union 2" d="M25.264,48.162a4.431,4.431,0,0,1-4.347-3.634H.793A.789.789,0,0,1,0,43.734V8.578a.8.8,0,0,1,.286-.614L4.56,4.469a1.261,1.261,0,0,1,.147-.082c.024-.008.041-.024.065-.024A.7.7,0,0,1,5.066,4.3H22.209a4.74,4.74,0,0,1,3.946,2.12A4.725,4.725,0,0,1,30.093,4.3h7.828V1.956A1.954,1.954,0,0,1,39.874,0h3.358a1.94,1.94,0,0,1,1.945,1.956l-.008,2.333h2.067a.731.731,0,0,1,.294.066c.016.008.041.024.057.033a.769.769,0,0,1,.139.082L52,7.964h0a.748.748,0,0,1,.286.614V43.734a.789.789,0,0,1-.793.794H31.367a4.425,4.425,0,0,1-4.347,3.634ZM2.721,42.939H21.645a.789.789,0,0,1,.793.794,2.844,2.844,0,0,0,2.835,2.84h1.757a2.844,2.844,0,0,0,2.835-2.84.789.789,0,0,1,.793-.794H49.572L46.9,40.279H5.393ZM1.585,8.954v32.88l2.688-2.677V6.761ZM48.02,39.15l2.688,2.677V8.954L48.02,6.761ZM26.93,9.045V38.7h19.5V5.893H45.159v.442l-.008,22.534v.139c0,.008-.008.016-.008.024a1.1,1.1,0,0,1-.049.237c-.008.024-.016.041-.024.066-.008.008-.008.024-.016.033L42.21,34.877a.786.786,0,0,1-.7.426.8.8,0,0,1-.7-.434l-2.827-5.517c0-.017,0-.024-.008-.033-.008-.024-.016-.041-.024-.066a.617.617,0,0,1-.049-.237c0-.017-.008-.024-.008-.033l.016-23.1H30.076A3.157,3.157,0,0,0,26.93,9.045ZM5.858,38.691v-.008h19.5V9.029A3.16,3.16,0,0,0,22.2,5.885H5.858Zm35.665-5.926,1.536-2.98L40,29.778ZM39.865,1.588a.365.365,0,0,0-.368.36L39.481,28.19l4.086.008.016-26.25V1.94a.349.349,0,0,0-.36-.352H39.865ZM29.962,35.3a.794.794,0,0,1,0-1.588h6.782a.794.794,0,0,1,0,1.588Zm-21.08,0a.794.794,0,0,1,0-1.588H22.331a.794.794,0,0,1,0,1.588Zm0-4.871a.794.794,0,0,1,0-1.588H22.331a.794.794,0,0,1,0,1.588Zm21.08,0a.794.794,0,0,1,0-1.588h5.319a.794.794,0,0,1,0,1.588Zm-21.08-4.87a.794.794,0,0,1,0-1.588H22.331a.794.794,0,0,1,0,1.588Zm21.08,0a.794.794,0,0,1,0-1.588h5.123a.794.794,0,0,1,0,1.588ZM8.883,20.692a.794.794,0,0,1,0-1.588H22.331a.794.794,0,0,1,0,1.588Zm21.08,0a.794.794,0,0,1,0-1.588h5.123a.794.794,0,0,1,0,1.588Zm-21.08-4.87a.794.794,0,0,1,0-1.588H22.331a.794.794,0,0,1,0,1.588Zm21.08,0a.794.794,0,0,1,0-1.588h5.123a.794.794,0,0,1,0,1.588ZM8.883,10.952a.794.794,0,0,1,0-1.588H22.331a.794.794,0,0,1,0,1.588Zm21.08,0a.794.794,0,0,1,0-1.588h5.123a.794.794,0,0,1,0,1.588Z" transform="translate(1014.858 1265.419)" fill="#ed56df"/>
  </g>
</svg>
