<svg xmlns="http://www.w3.org/2000/svg" width="88" height="88" viewBox="0 0 88 88">
  <g id="Group_17" data-name="Group 17" transform="translate(-2178.218 -1003.218)">
    <rect id="Rectangle_15" data-name="Rectangle 15" width="88" height="88" rx="17" transform="translate(2178.218 1003.218)" fill="#ffe4fd"/>
    <path id="Union_1" data-name="Union 1" d="M49.724,43.894a4.916,4.916,0,0,1-2.657-.391,2.8,2.8,0,0,1-1.3-1.874c-.019-.105-.031-.217-.043-.329-.012-.143-.006-.118.025.074v-.012c0-.019-.006-.043-.006-.062-.006-.074-.019-.155-.031-.23-.106-.739-.211-1.471-.317-2.209-.166-1.157-.328-2.314-.493-3.471a4.586,4.586,0,0,1-1.972-.445,3.61,3.61,0,0,1-1.813-2.035,3.81,3.81,0,0,1,.13-2.352q.81-3.044,1.627-6.081c.255-.943.5-1.886.757-2.83.149-.54.267-1.1.459-1.632a4.543,4.543,0,0,1,1.614-2.253,3.335,3.335,0,0,1,1.918-.558c.913-.006,1.819,0,2.725,0,.763,0,1.533-.012,2.3,0a3.434,3.434,0,0,1,2.452,1.03,5.092,5.092,0,0,1,1.2,2.408,1.049,1.049,0,0,1,.022.148c.18.675.364,1.35.543,2.024q.987,3.7,1.98,7.4a4.162,4.162,0,0,1,.155,2.755,3.881,3.881,0,0,1-2.57,2.277,4.413,4.413,0,0,1-1.154.14c-.2,1.367-.388,2.738-.584,4.1-.077.574-.171,1.147-.244,1.721l.014,0c.006,0-.068.515-.05.416a2.559,2.559,0,0,1-.385.987,2.84,2.84,0,0,1-2.117,1.266c-.273.026-.55.034-.829.034C50.63,43.916,50.171,43.894,49.724,43.894Zm.689-1.874h1.408l.038-.014c.056-.012.112-.031.161-.043l.038-.01.037-.027c.049-.031.1-.059.15-.091-.03.017.1-.1.11-.107l.036-.028.02-.034c.034-.053.068-.106.1-.162a.67.67,0,0,0,.038-.092,1.877,1.877,0,0,0,.05-.2c-.043.2,0-.062,0-.093.012-.093.025-.174.037-.261.025-.161.044-.316.068-.478.106-.757.217-1.508.323-2.265q.279-1.964.559-3.915a.939.939,0,0,1,.9-.683h.851c.115,0,.235,0,.352-.009-.112.008.11-.023.132-.029a1.657,1.657,0,0,0,.168-.044c.068-.019.137-.043.2-.068l.019-.007a3.639,3.639,0,0,0,.341-.186l.119-.078c.026-.022.064-.052.074-.058.1-.087.18-.18.273-.273l.04-.039.022-.036c.025-.05.056-.093.087-.143a1.56,1.56,0,0,0,.094-.17l.005-.017a3.271,3.271,0,0,0,.093-.354c-.043.2-.006-.044-.006-.081s0-.1-.006-.15l-.006-.024c-.459-1.793-.956-3.58-1.434-5.367-.461-1.732-.928-3.463-1.388-5.195q-.008-.027-.015-.055h0q-.01-.038-.017-.076a2.609,2.609,0,0,0-.181-.537c-.012-.043-.031-.081-.044-.124,0-.011-.016-.047-.028-.077s-.064-.138-.077-.165a3.421,3.421,0,0,0-.286-.484l0-.007c-.021-.025-.042-.047-.063-.073-.056-.056-.106-.112-.161-.161,0,0-.085-.078-.1-.095-.074-.049-.147-.092-.221-.135-.024-.014-.051-.025-.077-.037-.077-.02-.15-.052-.228-.074-.036-.005-.2-.031-.208-.037l-.19-.007H47.526c-.056,0-.118.006-.174.006h-.039l-.041.012c-.1.025-.2.05-.3.081l-.007,0c.062-.023-.063.035-.086.046-.068.037-.137.081-.2.118l-.024.014c-.014.011-.043.034-.057.048-.062.062-.13.118-.192.186-.043.043-.18.223-.081.087a3.352,3.352,0,0,0-.279.447c-.056.1-.106.2-.149.3s.006-.012.012-.025c-.012.043-.031.081-.043.124-.062.18-.118.36-.168.546a1.551,1.551,0,0,0-.043.161q-.605,2.29-1.223,4.579c-.484,1.818-.975,3.642-1.459,5.46-.037.161-.081.323-.124.478,0,.006-.006.019-.006.025l-.012.044s0,.007,0,.012c-.006.1-.006.192-.006.292,0,.011,0,.021,0,.029,0-.01,0-.022-.007-.036l.007.041c0,.04.005.041,0,.012a.486.486,0,0,0,.016.065,2.185,2.185,0,0,0,.081.267c-.056-.149.012.012.044.068s.056.093.081.137a.121.121,0,0,0,.016.03c.02.024.052.063.059.069.025.025.05.056.081.087a2.072,2.072,0,0,0,.2.191c.039.027.082.054.12.082a2.021,2.021,0,0,0,.217.13c.05.025.323.143.155.081.081.031.155.056.236.081s.186.05.279.068l.06.009.021,0a11.043,11.043,0,0,1,1.2.006.933.933,0,0,1,.9.683q.317,2.29.646,4.567c.093.645.18,1.284.273,1.924.006.056.019.112.025.167.012.087.031.168.037.261a.809.809,0,0,1,.017.168c.013.056.027.112.045.167,0,.015.007.028.009.037l.028.038c.036.057.068.117.106.172-.037-.054.024,0,.077.053s.1.113.01.042a2.31,2.31,0,0,0,.2.13l.037.028.037.01.2.056.021.006h2.052Zm1.854-.2L52.3,41.8ZM47.8,41.728l-.019-.025Zm4.7-.205Zm.017-.033.018-.035Zm-6.811-6.1Zm-1.173-1.874-.012,0Zm11.159-.009.041,0Zm-12.607-.759Zm14.263-.964C57.355,31.848,57.362,31.84,57.349,31.787ZM46.583,19.377l.053-.037A.6.6,0,0,0,46.583,19.377ZM8.745,43.894A4.916,4.916,0,0,1,6.088,43.5a2.8,2.8,0,0,1-1.3-1.874c-.019-.105-.031-.217-.043-.329-.012-.143-.006-.118.025.074v-.012c0-.019-.006-.043-.006-.062-.006-.074-.019-.155-.031-.23-.106-.739-.211-1.471-.317-2.209-.166-1.157-.328-2.314-.493-3.471a4.586,4.586,0,0,1-1.972-.445A3.61,3.61,0,0,1,.14,32.911a3.81,3.81,0,0,1,.13-2.352q.81-3.044,1.627-6.081c.255-.943.5-1.886.757-2.83.149-.54.267-1.1.459-1.632a4.543,4.543,0,0,1,1.614-2.253,3.335,3.335,0,0,1,1.918-.558c.913-.006,1.819,0,2.725,0,.763,0,1.533-.012,2.3,0a3.434,3.434,0,0,1,2.452,1.03,5.092,5.092,0,0,1,1.2,2.408,1.049,1.049,0,0,1,.022.148c.18.675.364,1.35.543,2.024q.987,3.7,1.98,7.4a4.162,4.162,0,0,1,.155,2.755,3.881,3.881,0,0,1-2.57,2.277,4.413,4.413,0,0,1-1.154.14c-.2,1.367-.388,2.738-.584,4.1-.077.574-.171,1.147-.244,1.721l.014,0c.006,0-.068.515-.05.416a2.561,2.561,0,0,1-.385.987,2.84,2.84,0,0,1-2.117,1.266c-.273.026-.55.034-.829.034C9.651,43.916,9.192,43.894,8.745,43.894Zm.689-1.874h1.408l.038-.014c.056-.012.112-.031.161-.043l.038-.01.037-.027c.049-.031.1-.059.15-.091-.03.017.1-.1.11-.107l.036-.028.02-.034c.034-.053.068-.106.1-.162a.669.669,0,0,0,.038-.092,1.879,1.879,0,0,0,.05-.2c-.043.2,0-.062,0-.093.012-.093.025-.174.037-.261.025-.161.043-.316.068-.478.106-.757.217-1.508.323-2.265q.279-1.964.559-3.915a.939.939,0,0,1,.9-.683h.851c.115,0,.235,0,.352-.009-.112.008.11-.023.132-.029a1.658,1.658,0,0,0,.168-.044c.068-.019.137-.043.2-.068l.019-.007a3.638,3.638,0,0,0,.341-.186l.119-.078c.026-.022.064-.052.074-.058.1-.087.18-.18.273-.273l.04-.039.022-.036c.025-.05.056-.093.087-.143a1.576,1.576,0,0,0,.094-.17l.005-.016a3.294,3.294,0,0,0,.093-.354c-.043.2-.006-.044-.006-.081s0-.1-.006-.15l-.006-.024c-.459-1.793-.956-3.58-1.434-5.367-.461-1.732-.928-3.463-1.388-5.195q-.008-.027-.015-.055h0c-.007-.025-.012-.05-.017-.076a2.607,2.607,0,0,0-.182-.538c-.012-.043-.031-.081-.043-.124,0-.011-.016-.047-.028-.077s-.064-.138-.077-.165a3.42,3.42,0,0,0-.286-.484l0-.007c-.021-.025-.042-.047-.063-.073-.056-.056-.106-.112-.161-.161,0,0-.084-.078-.1-.095-.074-.049-.147-.092-.221-.135-.024-.014-.051-.025-.077-.037-.077-.02-.15-.052-.228-.074-.036-.005-.2-.031-.208-.037l-.19-.007H6.547c-.056,0-.118.006-.174.006H6.334l-.041.012c-.1.025-.2.05-.3.081l-.008,0c.063-.023-.063.035-.085.046-.068.037-.137.081-.2.118l-.024.015c-.014.011-.043.034-.057.047-.062.062-.13.118-.192.186-.043.043-.18.223-.081.087a3.351,3.351,0,0,0-.279.447c-.056.1-.106.2-.149.3s.006-.012.012-.025c-.012.043-.031.081-.044.124-.062.18-.118.36-.168.546a1.579,1.579,0,0,0-.044.161q-.605,2.29-1.223,4.579c-.484,1.818-.975,3.642-1.459,5.46-.037.161-.081.323-.124.478,0,.006-.006.019-.006.025l-.012.043s0,.007,0,.012c-.006.1-.006.192-.006.292,0,.011,0,.021,0,.029,0-.01,0-.022-.007-.036l.007.041c0,.04.005.041,0,.012a.492.492,0,0,0,.016.064,2.186,2.186,0,0,0,.081.267c-.056-.149.012.012.044.068s.056.093.081.137a.121.121,0,0,0,.016.03c.02.024.052.063.059.069.025.025.05.056.081.087a2.072,2.072,0,0,0,.2.191c.039.027.082.054.12.082a2.031,2.031,0,0,0,.217.13c.05.025.323.143.155.081.081.031.155.056.236.081s.186.05.279.068l.06.009.021,0a11.041,11.041,0,0,1,1.2.006.933.933,0,0,1,.9.683q.317,2.29.646,4.567c.093.645.18,1.284.273,1.924.006.056.019.112.025.167.012.087.031.168.037.261,0,.025.03.2.017.168.013.056.027.112.045.167,0,.015.007.027.009.037s.016.021.028.038c.036.057.068.117.106.172-.037-.054.024,0,.077.053s.1.113.01.042a2.309,2.309,0,0,0,.2.13l.037.028.037.01.2.056.021.006H9.434Zm1.854-.2.034-.025ZM6.82,41.728,6.8,41.7Zm4.7-.205Zm.017-.033.018-.035Zm-6.811-6.1ZM3.555,33.519l-.012,0Zm11.159-.009.041,0ZM2.107,32.751Zm14.263-.964C16.376,31.848,16.382,31.84,16.37,31.787ZM5.6,19.377l.052-.037A.6.6,0,0,0,5.6,19.377Zm22.4,24.5a2.807,2.807,0,0,1-2.583-1.787,2.274,2.274,0,0,1-.18-.807c0-.056,0-.075.008-.074,0-.028-.009-.055-.014-.082-.056-.329-.106-.658-.161-.987q-.279-1.694-.546-3.388-.355-2.237-.717-4.474a4.258,4.258,0,0,1-2.313-.632A3.428,3.428,0,0,1,19.869,29a6.047,6.047,0,0,1,.348-1.837q.885-3.36,1.776-6.714c.466-1.762.937-3.525,1.4-5.287a4.42,4.42,0,0,1,2.707-3.4,4.653,4.653,0,0,1,1.4-.143h1.633c1,0,2-.006,3,0a3.518,3.518,0,0,1,2.322.875,4.858,4.858,0,0,1,1.366,2.569q.007.032.012.064c.211.8.422,1.6.633,2.394q1.173,4.421,2.34,8.848a11.617,11.617,0,0,1,.546,2.37,3.519,3.519,0,0,1-2.1,3.152,4.548,4.548,0,0,1-1.814.382c-.256,1.811-.6,3.613-.887,5.42L34.061,40.7c-.031.211-.074.422-.1.633,0,.027,0-.016.013-.06.012-.066.025-.132.006.047a2.889,2.889,0,0,1-.174.769,2.856,2.856,0,0,1-1.062,1.328,3.18,3.18,0,0,1-1.85.459H29.156l-.764,0C28.265,43.884,28.136,43.883,28.008,43.881ZM28,42.038h2.061c.385,0,.77.006,1.148,0,.05,0,.273-.037.093,0a2.308,2.308,0,0,0,.261-.069.968.968,0,0,0,.13-.074c.034-.021.064-.042.094-.063l.011-.011a1.564,1.564,0,0,0,.122-.119c-.027.036-.05.082.008-.009l.013-.015-.01.01.01-.016c.013-.025.075-.135.1-.176l.017-.041a1.219,1.219,0,0,1,.043-.161l.008-.026c0-.052,0-.1,0-.148.05-.583.18-1.16.273-1.731q.27-1.694.54-3.376c.261-1.638.528-3.276.788-4.914a.944.944,0,0,1,.9-.683h.956c.082,0,.16,0,.241-.009-.064,0,.085-.017.138-.028a1.65,1.65,0,0,0,.168-.043,1.432,1.432,0,0,0,.178-.056s.143-.069.157-.074c.108-.059.215-.128.319-.2-.032.02.1-.08.128-.1a1.7,1.7,0,0,0,.186-.18c.018-.022.1-.124.108-.13.018-.026.036-.052.054-.081.043-.068.081-.143.124-.217l.011-.019.008-.024c.031-.087.056-.18.081-.273a.12.12,0,0,0,.006-.022c0-.072.006-.149.006-.22,0-.017,0-.031,0-.043v-.007c-.006-.019-.006-.031-.012-.05s-.012-.056-.019-.081c-.584-2.315-1.223-4.623-1.831-6.937l-1.588-6.016q-.008-.026-.014-.053h0q-.006-.022-.011-.044a3.873,3.873,0,0,0-.194-.614c-.012-.043-.031-.08-.043-.123l-.007-.014-.13-.261c-.056-.093-.106-.186-.168-.273-.013-.023-.028-.047-.044-.07l-.043-.054c-.056-.062-.118-.13-.18-.192s-.217-.167-.068-.068a2.146,2.146,0,0,0-.279-.18l-.033-.017a.275.275,0,0,0-.053-.026h0l-.009,0,.008,0c-.1-.031-.2-.061-.293-.085-.031-.01-.066-.012-.1-.019h-.014c-.279.012-.571-.006-.85-.006H28.089c-.341,0-.677-.006-1.012,0-.075,0-.15.005-.225.006-.042.009-.087.015-.128.025-.087.025-.174.062-.261.081h-.007l-.018.011c-.043.025-.093.05-.136.074-.026.015-.1.066-.143.094s-.127.114-.149.135c-.074.074-.143.149-.211.23.118-.136-.05.081-.087.137-.05.081-.1.161-.143.248s-.106.2-.149.3.006-.012.012-.025a1.714,1.714,0,0,0-.062.161c-.068.2-.124.41-.18.614-.037.161-.081.316-.124.478-.509,1.93-1.018,3.853-1.527,5.783q-.8,3.043-1.608,6.087c-.056.211-.112.416-.168.627a.569.569,0,0,1-.025.1l-.012.038s0,.01,0,.018c-.006.1-.006.192-.006.292a.2.2,0,0,0,0,.028l-.009-.034a.808.808,0,0,0,.025.118c.012.05.031.105.044.155,0,.011.017.046.028.074l.052.106c.019.037.043.068.062.105l.047.069c.01.013.019.027.021.031.074.081.149.161.23.236.031.025.062.056.093.081l.009.008c.092.061.178.123.276.178.05.031.1.056.149.081l.052.023c-.03-.016.061.021.072.026.05.012.1.031.155.05.093.025.186.05.279.068a.612.612,0,0,0,.09.012,1.021,1.021,0,0,0,.109.007h1.08a.933.933,0,0,1,.9.683l.019.112c.143.707.23,1.433.348,2.153.192,1.191.379,2.377.571,3.562.168,1.024.329,2.054.5,3.078.044.254.087.515.124.769.019.112.037.223.05.341,0,.017.009.131.008.16a.092.092,0,0,0,0,.014c.012.05.13.323.044.161a2.587,2.587,0,0,0,.133.227l.016.015a.578.578,0,0,1,.087.087l.022.025.009.006c.044.031.093.056.137.087l.043.024c-.028-.013.012.009.046.023l.017.009-.014-.007.02.007c.032.008.137.034.188.048Zm4.127-.818,0-.008Zm-7.516-8.937Zm12.871-3.329a.244.244,0,0,0,0-.055A.347.347,0,0,0,37.477,28.954Zm-10.6-15.446h0Zm.768,28.466L27.6,41.95l.049.025Zm4.284-.285,0,0-.008.009ZM1.842,32.133v-.005c0,.007,0,.013,0,.018Zm40.979,0v-.005c0,.007,0,.013,0,.018ZM23.4,30.44l-.053-.006c.068,0,.081.006.065.006Zm-1.677-1.387a.446.446,0,0,1,.012.055A.326.326,0,0,1,21.722,29.054ZM45.409,13.867a5.465,5.465,0,1,1,10.15-2.849c0,.007,0,.013,0,.02v.012q0,.026,0,.051A5.513,5.513,0,0,1,51.2,16.4a5.645,5.645,0,0,1-1.063.1A5.513,5.513,0,0,1,45.409,13.867Zm4.215.751a5.572,5.572,0,0,0,.646.019c.1-.005.2-.011.292-.02.041-.007.177-.028.217-.036a4.133,4.133,0,0,0,.6-.167l.1-.037.091-.044c.087-.037.174-.087.255-.13a4.462,4.462,0,0,0,.509-.329c-.149.112.118-.105.155-.137.075-.062.137-.13.2-.2s.143-.161.217-.242c.011-.011.033-.038.047-.054L53,13.2a5.793,5.793,0,0,0,.354-.6c.015-.029.079-.176.091-.2.019-.053.056-.157.064-.185a4.294,4.294,0,0,0,.168-.689c.016-.1,0-.009,0,.026l.017-.156c.006-.116.012-.226.012-.342V11.05h0v-.006c0-.147-.013-.288-.025-.447l0-.028s0-.012,0-.022c-.006-.044-.012-.081-.019-.124a5.889,5.889,0,0,0-.2-.72l-.012-.043h0a1.569,1.569,0,0,0-.068-.149c-.056-.112-.112-.217-.174-.323s-.112-.186-.174-.273a.635.635,0,0,1-.049-.061l-.03-.041c-.019-.023-.043-.052-.051-.06a5.165,5.165,0,0,0-.484-.49c.005,0-.123-.1-.119-.1l-.043-.032c-.1-.068-.2-.137-.3-.2s-.186-.105-.286-.155c-.074-.037-.149-.074-.223-.105.012.006.13.056.031.019a5.643,5.643,0,0,0-.72-.2l-.2-.037h-.01c-.106-.006-.2-.019-.3-.019a4.506,4.506,0,0,0-.646.025c.192-.019-.161.031-.211.044-.1.025-.192.05-.286.074s-.211.074-.317.105l-.009,0c-.012.007-.092.039-.109.048a4.619,4.619,0,0,0-.571.316c-.05.031-.093.062-.137.093-.008.008-.037.031-.062.049l-.037.032c-.043.037-.087.068-.124.105a5.272,5.272,0,0,0-.447.465l-.029.032-.07.1c-.062.087-.118.18-.174.273s-.106.186-.155.285c-.017.04-.122.287-.088.192a5.013,5.013,0,0,0-.173.559q-.047.186-.074.372c.031-.174,0,.081-.006.136a3.813,3.813,0,0,0,0,.652,1.267,1.267,0,0,1,.018.162c0,.006,0,.01,0,.012.019.112.044.217.068.329a2.767,2.767,0,0,0,.093.323c.012.043.1.279.068.2-.05-.112.037.093.05.112l.074.149c.05.087.093.167.143.248s.118.186.18.273c.025.037.05.068.074.1-.1-.137-.019-.025.006,0a5.256,5.256,0,0,0,.447.465c.031.031.273.223.124.112a2.579,2.579,0,0,0,.267.186,4.581,4.581,0,0,0,.571.31c.037.012.168.062.006,0,.043.012.081.031.118.044.087.025.18.062.273.087.124.031.242.062.366.087.055.012.109.018.164.03Zm1.8-.217.037-.015Zm1.5-1.1.015-.02Zm-.58-5.09Zm-1.8-.754C50.585,7.458,50.7,7.463,50.542,7.452ZM4.43,13.867A5.468,5.468,0,0,1,10.936,5.9a5.544,5.544,0,0,1,3.644,5.119c0,.006,0,.013,0,.019v.012q0,.026,0,.051a5.513,5.513,0,0,1-4.364,5.3,5.645,5.645,0,0,1-1.063.1A5.513,5.513,0,0,1,4.43,13.867Zm4.215.751a5.572,5.572,0,0,0,.646.019c.1-.005.2-.011.292-.02.041-.007.177-.028.217-.036a4.133,4.133,0,0,0,.6-.167l.1-.037.091-.044c.087-.037.174-.087.255-.13a4.462,4.462,0,0,0,.509-.329c-.149.112.118-.105.155-.137.075-.062.137-.13.2-.2s.143-.161.217-.242c.011-.011.033-.038.047-.054l.034-.045a5.791,5.791,0,0,0,.354-.6c.015-.029.079-.177.091-.2.019-.053.056-.157.064-.185a4.294,4.294,0,0,0,.168-.689c.016-.1,0-.009,0,.026l.017-.156c.006-.116.012-.226.012-.342V11.05h0v-.006c0-.147-.013-.288-.025-.447l0-.028s0-.012,0-.022c-.006-.044-.012-.081-.019-.124a5.888,5.888,0,0,0-.2-.72l-.012-.043h0a1.569,1.569,0,0,0-.068-.149c-.056-.112-.112-.217-.174-.323S12.1,9,12.041,8.916a.635.635,0,0,1-.049-.061l-.031-.041c-.019-.023-.043-.051-.051-.059a5.165,5.165,0,0,0-.484-.49c.005,0-.123-.1-.119-.1l-.043-.032c-.1-.068-.2-.137-.3-.2s-.186-.105-.286-.155c-.074-.037-.149-.074-.223-.105.012.006.13.056.031.019a5.649,5.649,0,0,0-.72-.2l-.2-.037h-.01c-.106-.006-.2-.019-.3-.019a4.506,4.506,0,0,0-.646.025c.192-.019-.161.031-.211.044-.1.025-.192.05-.286.074s-.211.074-.317.105l-.009,0c-.012.007-.092.039-.109.048a4.618,4.618,0,0,0-.571.316c-.05.031-.093.062-.137.093-.008.008-.037.031-.062.049l-.037.032c-.043.037-.087.068-.124.105a5.271,5.271,0,0,0-.447.465l-.029.032-.07.1c-.062.087-.118.18-.174.273s-.106.186-.155.285c-.017.04-.124.29-.087.19a5.019,5.019,0,0,0-.173.561q-.047.186-.074.372c.031-.174,0,.081-.006.136a3.813,3.813,0,0,0,0,.652,1.334,1.334,0,0,1,.018.163c0,.005,0,.009,0,.011.019.112.043.217.068.329a2.766,2.766,0,0,0,.093.323c.012.043.1.279.068.2-.05-.112.037.093.05.112l.074.149c.05.087.093.167.143.248s.118.186.18.273c.025.037.05.068.074.1-.1-.137-.019-.025.006,0a5.256,5.256,0,0,0,.447.465c.031.031.273.223.124.112a2.58,2.58,0,0,0,.267.186,4.582,4.582,0,0,0,.571.31c.037.012.168.062.006,0,.043.012.081.031.118.044.087.025.18.062.273.087.124.031.242.062.366.087.055.012.109.018.164.03Zm1.8-.217.037-.015Zm1.5-1.1.015-.02Zm-.58-5.09Zm-1.8-.754C9.605,7.458,9.725,7.463,9.563,7.452Zm23.2,6.165h0c.018.01.038.018.057.027s.019.013.016.013A.428.428,0,0,1,32.759,13.617Zm20.909-2.063v.012S53.667,11.559,53.667,11.554Zm-40.979,0v.012S12.687,11.559,12.688,11.554ZM24.917,8.283a5.465,5.465,0,1,1,10.15-2.855q0,.017,0,.033v0q0,.024,0,.048a5.513,5.513,0,0,1-4.364,5.3,5.645,5.645,0,0,1-1.063.1A5.513,5.513,0,0,1,24.917,8.283Zm4.215.751a5.57,5.57,0,0,0,.646.019c.1-.005.2-.011.292-.02.041-.007.177-.028.217-.036a4.13,4.13,0,0,0,.6-.167l.1-.037.091-.044c.087-.037.174-.087.254-.13a4.45,4.45,0,0,0,.509-.329c-.149.112.118-.105.155-.137.074-.062.137-.13.2-.2s.143-.161.217-.242c.011-.011.034-.039.047-.055l.033-.044a5.79,5.79,0,0,0,.354-.6c.015-.029.079-.176.091-.2.019-.053.056-.157.064-.185a4.292,4.292,0,0,0,.168-.689c.016-.1,0-.009,0,.025l.017-.156c.006-.118.012-.23.012-.348h0V5.459a3.827,3.827,0,0,0-.025-.446l0-.027s0-.012,0-.022c-.006-.043-.012-.081-.019-.124a5.907,5.907,0,0,0-.2-.72l-.012-.044a1.611,1.611,0,0,0-.068-.149c-.056-.112-.112-.217-.174-.323s-.112-.186-.174-.273a.635.635,0,0,1-.049-.061l-.031-.041c-.019-.023-.043-.052-.051-.059a5.179,5.179,0,0,0-.484-.49c.005,0-.123-.1-.119-.1l-.043-.032c-.1-.068-.2-.137-.3-.2s-.186-.105-.286-.155c-.075-.037-.149-.074-.224-.105.012.006.13.056.031.019a5.623,5.623,0,0,0-.72-.2l-.2-.037h-.01c-.106-.006-.2-.019-.3-.019a4.507,4.507,0,0,0-.646.025c.192-.019-.161.031-.211.044-.1.025-.192.05-.286.074s-.211.074-.317.105l-.008,0c-.012.006-.092.039-.109.048a4.647,4.647,0,0,0-.571.316c-.05.031-.093.062-.136.093-.008.008-.038.031-.062.049l-.037.031c-.043.037-.087.068-.124.105a5.287,5.287,0,0,0-.447.465l-.029.032-.07.1c-.062.087-.118.18-.174.273s-.106.186-.155.285c-.017.04-.123.289-.087.19a5.034,5.034,0,0,0-.173.561q-.046.186-.074.372c.031-.174,0,.081-.006.136a3.813,3.813,0,0,0,0,.652,1.331,1.331,0,0,1,.018.163c0,.005,0,.009,0,.011.019.112.043.217.068.329a2.747,2.747,0,0,0,.093.323c.012.044.1.279.068.2-.05-.112.037.093.05.112l.074.149c.05.087.093.167.143.248s.118.186.18.273c.025.037.05.068.074.1-.1-.137-.019-.025.006,0a5.271,5.271,0,0,0,.447.465c.031.031.273.223.124.112a2.575,2.575,0,0,0,.267.186,4.582,4.582,0,0,0,.571.31c.037.012.168.062.006,0,.044.012.081.031.118.044.087.025.18.062.273.087.124.031.242.062.366.087.055.012.109.018.164.03Zm1.8-.217.037-.015Zm1.5-1.1.017-.022Zm-.58-5.09Zm-1.8-.754C30.092,1.873,30.212,1.878,30.05,1.867Zm3.125,4.1v.012S33.174,5.975,33.175,5.969Z" transform="translate(2192.624 1025.26)" fill="#ed56df"/>
  </g>
</svg>
