<svg xmlns="http://www.w3.org/2000/svg" width="88" height="88" viewBox="0 0 88 88">
  <g id="Group_25" data-name="Group 25" transform="translate(-943 -1402)">
    <rect id="Rectangle_15" data-name="Rectangle 15" width="88" height="88" rx="17" transform="translate(943 1402)" fill="#ffe4fd"/>
    <g id="Group_24" data-name="Group 24" transform="translate(762.566 518.973)">
      <text id="BACKGROUND_" data-name="BACKGROUND " transform="translate(190.434 933.716)" fill="#ed56df" font-size="1" font-family="Montserrat-Medium, Montserrat" font-weight="500"><tspan x="0" y="0">BACKGROUND </tspan></text>
      <path id="Path_39" data-name="Path 39" d="M143.281,49.824a3.819,3.819,0,1,0-3.655-4.91h-5.7a12.035,12.035,0,0,0-2.051-3.732l5.909-3.879a5.488,5.488,0,1,0-1.2-1.828l-6.263,4.119a11.968,11.968,0,0,0-15.537,0l-6.263-4.119a5.389,5.389,0,0,0,.393-2.019,5.458,5.458,0,1,0-1.588,3.846l5.9,3.879a12.022,12.022,0,0,0-2.051,3.732h-5.7a3.819,3.819,0,1,0,0,2.182h5.183a12.39,12.39,0,0,0-.115,1.637v3.852l-3.23,2.122a5.464,5.464,0,1,0,1.2,1.822l2.03-1.331v8.118a8.635,8.635,0,0,0-3.164,6.634v4.244A2.91,2.91,0,0,0,110.29,77.1h24.517a2.91,2.91,0,0,0,2.908-2.908V69.95a8.635,8.635,0,0,0-3.164-6.634V55.2l2.03,1.331a5.468,5.468,0,1,0,1.2-1.822l-3.23-2.122V48.733a12.456,12.456,0,0,0-.115-1.637h5.189a3.82,3.82,0,0,0,3.655,2.728Zm0-5.456A1.637,1.637,0,1,1,141.644,46,1.638,1.638,0,0,1,143.281,44.368Zm-1.637-14.185a3.274,3.274,0,1,1-3.274,3.274A3.276,3.276,0,0,1,141.644,30.183Zm-38.19,6.547a3.274,3.274,0,1,1,3.274-3.274A3.276,3.276,0,0,1,103.454,36.73Zm-1.637,10.911A1.637,1.637,0,1,1,103.454,46,1.642,1.642,0,0,1,101.817,47.642Zm1.637,14.185a3.274,3.274,0,1,1,3.274-3.274A3.276,3.276,0,0,1,103.454,61.826Zm38.19-6.547a3.274,3.274,0,1,1-3.274,3.274A3.276,3.276,0,0,1,141.644,55.28Zm-18-16.3a9.829,9.829,0,0,1,8.729,9.755V61.957a9.532,9.532,0,0,0-3.917-.84h-1.975l-.546-1.833a7.78,7.78,0,0,0,4.4-6.994V47.271a1.08,1.08,0,0,0-.611-.976L123.64,43.32Zm4.507,8.975V52.29a5.6,5.6,0,0,1-11.2,0V47.953l5.6-2.739Zm-15.418.78a9.829,9.829,0,0,1,8.729-9.755V43.32l-6.078,2.973a1.09,1.09,0,0,0-.611.976v5.019a7.78,7.78,0,0,0,4.4,6.994l-.546,1.833h-1.975a9.532,9.532,0,0,0-3.917.84V48.733Zm8.729,26.187H115.92V72.9a1.091,1.091,0,0,0-2.182,0V74.92H110.29a.729.729,0,0,1-.726-.726V69.95a6.729,6.729,0,0,1,5.03-6.367,10.127,10.127,0,0,0,6.863,4.714Zm-4.212-11.457c-.044-.054-.093-.109-.142-.164h2.329a1.089,1.089,0,0,0,1.048-.78l.764-2.57a7.15,7.15,0,0,0,2.608,0l.764,2.57a1.088,1.088,0,0,0,1.048.78h2.329c-.049.054-.1.109-.142.164a6.518,6.518,0,0,1-10.605,0Zm18.287,6.487v4.244a.729.729,0,0,1-.726.726H131.36V72.9a1.091,1.091,0,0,0-2.182,0V74.92H123.64V68.3a10.127,10.127,0,0,0,6.863-4.714,6.729,6.729,0,0,1,5.03,6.367Z" transform="translate(100.237 874.976)" fill="#ed56df"/>
    </g>
  </g>
</svg>
