<svg xmlns="http://www.w3.org/2000/svg" width="21.99" height="21.989" viewBox="0 0 21.99 21.989">
  <path id="noun-call-4574718" d="M174.695,99.512A33.663,33.663,0,0,0,171.58,97.9c-2.06-.84-1.921,1.643-3.391,2.448-.956.523-2.3-.425-3.139-.95a14.812,14.812,0,0,1-3.822-3.523c-.55-.714-1.764-2.057-1.614-3.058.238-1.589,2.117-1.668,1.579-3.612-.287-1.041-.8-2.065-1.188-3.068-.516-1.344-.729-2.205-2.234-2.132a3.1,3.1,0,0,0-2.477,1.39c-1.809,2.356-1.537,5.533-.321,8.118a24.922,24.922,0,0,0,7.821,9.334,16.689,16.689,0,0,0,7.562,3.126c1.9.172,4.558-.856,5.238-2.919l-.114.349c.016-.051.051-.156.114-.349.028-.082.045-.138.063-.19l-.062.186c.6-1.818.672-2.695-.9-3.54Zm.962,3.354c.023-.072.044-.135.056-.169C175.7,102.725,175.683,102.785,175.656,102.866Z" transform="translate(-153.999 -84.004)" fill="#2d2d2d" fill-rule="evenodd"/>
</svg>
