<?xml version="1.0" standalone="no"?>
<!DOCTYPE svg PUBLIC "-//W3C//DTD SVG 20010904//EN"
 "http://www.w3.org/TR/2001/REC-SVG-20010904/DTD/svg10.dtd">
<svg version="1.0" xmlns="http://www.w3.org/2000/svg"
 width="2550.000000pt" height="2550.000000pt" viewBox="0 0 2550.000000 2550.000000"
 preserveAspectRatio="xMidYMid meet">

<g transform="translate(0.000000,2550.000000) scale(0.100000,-0.100000)"
fill="#000000" stroke="none">
<path d="M3979 17284 c-9 -11 -29 -15 -76 -13 -38 1 -68 -2 -75 -9 -7 -7 -31
-12 -54 -12 -24 0 -46 -4 -49 -10 -3 -5 -24 -10 -45 -10 -21 0 -42 -4 -45 -10
-3 -5 -16 -10 -29 -10 -12 0 -26 -4 -32 -9 -5 -6 -21 -12 -37 -15 -15 -3 -42
-12 -59 -20 -17 -9 -37 -16 -43 -16 -7 0 -15 -8 -18 -19 -2 -10 -17 -21 -32
-25 -99 -25 -308 -219 -395 -367 -65 -110 -73 -125 -95 -201 -9 -32 -21 -60
-26 -64 -5 -3 -6 -16 -3 -29 3 -13 0 -34 -7 -47 -8 -14 -12 -54 -11 -103 1
-53 -3 -88 -12 -104 -11 -20 -11 -28 1 -50 9 -18 13 -52 11 -106 -1 -52 2 -88
11 -104 7 -12 10 -32 7 -44 -3 -11 2 -33 10 -49 8 -16 12 -37 9 -48 -3 -10 -1
-21 5 -25 5 -3 10 -14 10 -24 0 -10 14 -37 30 -59 17 -23 30 -47 31 -54 1 -21
109 -208 120 -208 4 0 31 -32 59 -70 29 -39 100 -113 159 -165 58 -52 115
-103 126 -113 11 -11 34 -27 50 -38 17 -10 47 -32 67 -50 21 -17 54 -39 74
-50 20 -10 49 -31 65 -46 15 -16 34 -28 42 -28 8 0 37 -18 63 -40 27 -22 54
-40 60 -40 6 0 22 -10 36 -22 14 -13 51 -36 83 -53 31 -16 62 -37 69 -45 6 -9
27 -23 46 -32 19 -9 52 -28 73 -42 21 -14 41 -26 45 -26 16 0 118 -56 129 -71
7 -9 36 -28 65 -42 130 -62 207 -97 215 -97 5 0 16 -9 26 -20 9 -11 24 -20 32
-20 8 0 15 -5 15 -11 0 -6 6 -9 14 -6 8 3 20 -1 26 -9 7 -8 18 -14 25 -14 7 0
30 -9 52 -19 21 -11 63 -31 93 -45 30 -15 62 -31 70 -35 8 -5 38 -19 65 -32
58 -26 57 -25 154 -80 41 -23 83 -49 94 -59 24 -23 75 -45 84 -36 9 9 -28 46
-67 66 -19 10 -46 29 -60 42 -14 13 -42 35 -63 47 -21 13 -43 28 -50 34 -18
18 -117 77 -128 77 -5 0 -14 9 -21 20 -7 11 -16 20 -21 20 -7 0 -64 37 -77 50
-6 6 -28 18 -98 55 -29 15 -52 31 -52 36 0 5 -6 9 -13 9 -8 0 -22 9 -32 20
-10 11 -23 20 -30 20 -7 0 -19 8 -28 18 -9 9 -33 26 -54 37 -33 17 -99 66
-168 123 -11 10 -25 19 -32 22 -20 9 -176 146 -231 204 -30 31 -57 56 -61 56
-4 0 -14 12 -22 26 -8 15 -29 43 -47 63 -36 39 -102 136 -102 150 0 5 -7 12
-16 15 -8 3 -12 11 -8 17 4 7 1 17 -7 23 -26 20 -47 62 -54 109 -4 25 -13 52
-21 58 -8 6 -14 22 -14 35 0 12 -4 26 -10 29 -5 3 -10 32 -10 64 0 31 -5 62
-11 68 -14 14 -14 215 0 241 6 12 11 41 11 66 0 25 5 48 11 51 6 4 8 13 5 20
-3 8 4 25 15 38 10 14 19 32 19 40 0 9 4 18 9 21 4 3 11 19 14 35 4 16 20 45
37 64 16 19 30 38 30 41 0 4 28 34 63 67 57 55 85 77 129 104 69 42 112 65
119 65 5 0 9 5 9 10 0 6 9 10 20 10 11 0 28 4 38 9 46 23 95 41 112 41 10 0
22 5 25 10 3 6 19 10 35 10 16 0 32 5 35 10 3 6 24 10 46 10 22 0 54 7 71 16
20 11 46 15 73 12 25 -3 52 0 66 8 16 8 64 13 138 13 65 0 119 5 125 11 13 13
209 13 223 -1 6 -6 58 -10 127 -10 65 0 129 -5 144 -11 15 -6 53 -10 85 -9 39
2 65 -2 82 -13 14 -9 45 -16 73 -16 26 0 52 -4 58 -9 5 -5 27 -11 49 -14 63
-9 127 -23 158 -36 16 -6 33 -9 38 -5 5 3 19 -2 31 -10 12 -9 35 -16 50 -16
16 0 36 -4 46 -9 74 -38 127 -61 142 -61 10 0 35 -9 57 -20 61 -31 151 -70
162 -70 6 0 11 -4 11 -10 0 -14 67 -43 81 -35 13 9 12 11 -165 188 -71 71
-155 148 -187 172 -32 23 -64 49 -72 57 -26 26 -266 181 -297 192 -14 5 -32
14 -40 21 -20 17 -101 55 -116 55 -7 0 -19 6 -26 13 -28 26 -263 127 -298 127
-9 0 -20 3 -24 7 -9 10 -78 33 -98 33 -9 0 -21 7 -26 16 -8 15 -45 26 -127 40
-16 3 -37 8 -45 11 -8 3 -25 5 -38 4 -13 -2 -33 4 -45 12 -25 16 -72 26 -162
33 -33 3 -64 10 -69 15 -6 5 -37 9 -71 9 -34 0 -66 5 -72 11 -7 7 -48 11 -110
10 -74 -1 -103 2 -118 13 -30 23 -417 23 -436 0z"/>
<path d="M14600 13007 l0 -107 -1595 0 -1595 0 0 -430 0 -430 1595 0 1594 0 3
-119 3 -119 285 315 c157 173 289 320 294 327 7 10 -69 100 -274 327 -156 173
-289 321 -296 329 -12 12 -14 -2 -14 -93z"/>
<path d="M18740 13007 l0 -107 -1595 0 -1595 0 0 -430 0 -430 1595 0 1594 0 3
-122 3 -122 274 305 c151 167 285 315 297 329 l23 25 -270 300 c-148 165 -283
313 -299 330 l-30 30 0 -108z"/>
<path d="M22880 13007 l0 -107 -1595 0 -1595 0 0 -430 0 -430 1595 0 1594 0 3
-122 3 -122 274 305 c151 167 285 315 297 329 l23 25 -270 300 c-148 165 -283
313 -299 330 l-30 30 0 -108z"/>
<path d="M3120 12841 c0 -10 53 -51 64 -51 4 0 30 -19 59 -41 28 -23 62 -45
74 -50 12 -4 29 -19 38 -33 9 -13 33 -32 53 -41 20 -9 46 -22 57 -28 60 -37
135 -88 147 -100 8 -8 23 -17 34 -21 20 -6 76 -42 184 -118 36 -25 79 -52 95
-61 17 -8 39 -24 50 -34 33 -30 93 -73 102 -73 5 0 16 -8 25 -17 23 -25 46
-43 54 -43 19 0 300 -287 344 -352 76 -111 85 -123 98 -131 6 -4 12 -14 12
-22 0 -8 11 -31 25 -51 14 -20 26 -51 27 -68 2 -51 3 -54 21 -73 9 -11 17 -29
17 -41 0 -11 5 -24 10 -27 6 -3 10 -30 10 -60 0 -30 5 -57 10 -60 6 -4 10 -55
10 -120 0 -65 -4 -116 -10 -120 -5 -3 -10 -31 -10 -61 0 -30 -4 -54 -10 -54
-5 0 -10 -9 -10 -21 0 -11 -6 -33 -14 -47 -8 -15 -23 -49 -32 -76 -10 -27 -36
-70 -57 -95 -21 -25 -53 -63 -70 -84 -18 -20 -57 -54 -87 -74 -30 -20 -56 -40
-58 -45 -2 -4 -8 -8 -14 -8 -6 0 -37 -18 -70 -40 -33 -22 -69 -40 -79 -40 -10
0 -21 -4 -24 -10 -3 -5 -17 -10 -30 -10 -13 0 -27 -4 -30 -10 -3 -5 -19 -10
-35 -10 -16 0 -32 -4 -35 -10 -3 -5 -22 -10 -41 -10 -19 0 -34 -4 -34 -10 0
-5 -22 -10 -50 -10 -27 0 -50 -4 -50 -10 0 -6 -29 -10 -66 -10 -46 0 -70 -5
-81 -16 -12 -11 -34 -15 -87 -14 -39 0 -98 -4 -131 -10 -88 -17 -235 -23 -259
-11 -28 13 -105 22 -194 20 -52 0 -80 4 -98 16 -18 12 -43 15 -91 13 -46 -2
-68 1 -71 10 -2 8 -25 12 -62 12 -32 0 -62 5 -65 10 -3 6 -26 10 -50 10 -24 0
-47 5 -50 10 -3 6 -26 10 -50 10 -24 0 -47 5 -50 10 -3 6 -21 10 -40 10 -19 0
-37 5 -40 10 -3 6 -21 10 -39 10 -19 0 -39 7 -46 15 -7 8 -23 15 -35 15 -12 0
-28 6 -34 14 -10 12 -54 27 -87 30 -6 1 -18 6 -25 12 -8 5 -34 19 -59 29 -73
30 -143 64 -178 87 -52 33 -62 9 -15 -39 21 -21 61 -63 88 -93 67 -72 152
-150 165 -150 5 0 10 -6 10 -14 0 -8 16 -24 36 -36 19 -12 61 -44 92 -71 31
-27 62 -49 69 -49 7 0 16 -6 20 -14 4 -7 26 -21 48 -32 22 -10 63 -34 90 -54
28 -20 67 -44 87 -54 20 -9 39 -20 42 -25 3 -4 27 -16 53 -25 81 -30 114 -47
120 -62 3 -8 13 -14 23 -14 11 0 22 -4 25 -10 3 -5 15 -10 26 -10 10 0 19 -4
19 -10 0 -5 11 -10 24 -10 14 0 28 -4 31 -10 3 -5 17 -10 30 -10 13 0 27 -4
30 -10 3 -5 15 -10 26 -10 10 0 27 -4 37 -9 26 -13 86 -31 105 -31 9 0 21 -9
27 -20 7 -14 21 -20 45 -20 18 0 37 -4 40 -10 3 -5 21 -10 39 -10 19 0 39 -7
46 -15 9 -11 16 -13 24 -5 15 15 35 12 64 -9 27 -19 72 -28 171 -36 30 -2 58
-8 63 -13 5 -5 31 -7 57 -4 32 3 58 -1 79 -12 22 -12 59 -16 131 -16 56 0 103
-4 106 -10 4 -6 85 -10 210 -10 125 0 206 4 210 10 3 6 33 10 66 10 35 0 73 7
90 16 17 8 43 14 57 13 15 -2 38 1 50 5 13 4 34 10 45 12 12 2 38 7 57 10 19
4 46 14 60 24 14 10 36 21 50 24 42 12 87 35 100 51 7 8 18 15 25 15 28 0 169
104 244 180 83 83 170 202 203 277 10 23 23 45 28 48 6 4 7 17 4 31 -4 17 -1
26 10 30 9 4 16 18 16 34 0 16 4 31 9 34 4 3 6 16 4 29 -3 14 2 38 11 55 11
21 16 58 16 116 0 47 5 88 10 91 7 4 7 12 0 25 -5 10 -10 58 -10 107 0 65 -4
95 -16 111 -11 16 -14 34 -10 57 5 26 3 36 -10 43 -11 6 -15 17 -11 31 3 12
-1 34 -9 49 -8 15 -14 34 -14 43 0 9 -7 22 -15 29 -8 7 -13 16 -10 20 3 5 1
11 -5 15 -5 3 -19 25 -29 48 -11 23 -31 58 -44 78 -14 21 -28 46 -31 57 -4 12
-21 34 -39 49 -18 16 -38 41 -46 56 -8 15 -27 39 -43 55 -16 15 -42 40 -56 56
-44 48 -55 59 -111 106 -30 25 -76 64 -103 88 -27 23 -52 42 -57 42 -4 0 -36
23 -70 50 -34 28 -67 50 -73 50 -5 0 -19 11 -30 25 -11 14 -24 25 -29 25 -7 0
-125 74 -295 185 -25 17 -72 44 -105 61 -33 17 -67 38 -77 45 -26 21 -60 39
-75 39 -7 0 -29 13 -49 30 -20 16 -88 55 -152 86 -64 31 -119 60 -122 65 -3 5
-14 9 -25 9 -10 0 -19 4 -19 10 0 8 -28 23 -95 50 -11 5 -46 20 -77 34 -31 14
-62 26 -67 26 -6 0 -11 5 -11 10 0 6 -9 10 -20 10 -11 0 -20 5 -20 10 0 6 -8
10 -19 10 -10 0 -23 6 -29 13 -6 7 -35 24 -64 36 -83 36 -174 85 -192 102 -6
5 -18 9 -28 9 -10 0 -18 6 -18 13 0 6 -14 20 -31 30 -33 18 -69 23 -69 8z"/>
<path d="M1150 8255 l0 -425 270 0 270 0 0 50 0 50 -225 0 -225 0 0 145 0 145
205 0 205 0 0 50 0 50 -205 0 -205 0 0 130 0 130 215 0 215 0 0 50 0 50 -260
0 -260 0 0 -425z"/>
<path d="M3570 8255 l0 -425 40 0 40 0 0 425 0 425 -40 0 -40 0 0 -425z"/>
<path d="M9090 8255 l0 -425 270 0 270 0 0 50 0 50 -225 0 -225 0 0 145 0 145
205 0 205 0 0 50 0 50 -205 0 -205 0 0 130 0 130 215 0 215 0 0 50 0 50 -260
0 -260 0 0 -425z"/>
<path d="M10210 8518 l0 -161 -37 40 c-100 108 -255 59 -309 -99 -14 -39 -19
-81 -19 -163 0 -99 3 -116 27 -165 30 -62 41 -76 82 -108 74 -57 161 -49 220
20 l36 42 0 -47 0 -47 40 0 40 0 0 425 0 425 -40 0 -40 0 0 -162z m-72 -178
c52 -32 76 -96 76 -205 0 -101 -16 -148 -66 -190 -37 -32 -99 -33 -146 -5 -63
39 -96 169 -72 285 10 47 21 68 50 97 32 32 44 38 81 38 27 0 57 -8 77 -20z"/>
<path d="M12920 8630 l0 -50 40 0 40 0 0 50 0 50 -40 0 -40 0 0 -50z"/>
<path d="M15400 8255 l0 -425 270 0 270 0 0 50 0 50 -225 0 -225 0 0 145 0
145 205 0 205 0 0 50 0 50 -205 0 -205 0 0 130 0 130 215 0 215 0 0 50 0 50
-260 0 -260 0 0 -425z"/>
<path d="M23280 8255 l0 -425 39 0 39 0 4 208 c4 232 12 267 70 302 40 24 105
26 137 4 45 -32 51 -67 51 -299 l0 -215 40 0 40 0 0 247 c0 228 -2 250 -20
289 -24 49 -52 70 -112 83 -60 14 -119 -3 -160 -45 -18 -19 -36 -34 -40 -34
-5 0 -8 70 -8 155 l0 155 -40 0 -40 0 0 -425z"/>
<path d="M23960 8630 l0 -50 40 0 40 0 0 50 0 50 -40 0 -40 0 0 -50z"/>
<path d="M7563 8624 c-32 -25 -33 -28 -33 -100 l0 -74 -35 0 -35 0 0 -50 0
-50 34 0 35 0 3 -235 3 -235 27 -26 c22 -22 36 -27 82 -28 30 0 58 2 61 5 3 4
3 25 -1 48 -6 38 -9 41 -38 41 -18 0 -37 5 -44 12 -9 9 -12 70 -12 215 l0 203
45 0 45 0 0 50 0 50 -45 0 -45 0 0 100 c0 55 -3 100 -7 100 -5 0 -23 -12 -40
-26z"/>
<path d="M12573 8624 c-32 -25 -33 -28 -33 -100 l0 -74 -35 0 -35 0 0 -50 0
-50 34 0 35 0 3 -235 3 -235 27 -26 c22 -22 36 -27 82 -28 30 0 58 2 61 5 3 4
3 25 -1 48 -6 38 -9 41 -38 41 -18 0 -37 5 -44 12 -9 9 -12 70 -12 215 l0 203
45 0 45 0 0 50 0 50 -45 0 -45 0 0 100 c0 55 -3 100 -7 100 -5 0 -23 -12 -40
-26z"/>
<path d="M16913 8624 c-32 -25 -33 -28 -33 -100 l0 -74 -35 0 -35 0 0 -50 0
-50 34 0 35 0 3 -235 3 -235 27 -26 c22 -22 36 -27 82 -28 30 0 58 2 61 5 3 4
3 25 -1 48 -6 38 -9 41 -38 41 -18 0 -37 5 -44 12 -9 9 -12 70 -12 215 l0 203
45 0 45 0 0 50 0 50 -45 0 -45 0 0 100 c0 55 -3 100 -7 100 -5 0 -23 -12 -40
-26z"/>
<path d="M2115 8445 c-23 -8 -56 -32 -77 -57 l-38 -43 0 53 0 52 -35 0 -35 0
0 -310 0 -310 39 0 39 0 4 208 c5 226 12 260 63 300 17 14 42 22 66 22 94 0
99 -14 99 -300 l0 -230 45 0 45 0 0 210 c0 230 5 259 55 298 33 26 100 29 132
7 36 -25 43 -77 43 -302 l0 -213 40 0 40 0 0 238 c0 135 -5 253 -11 275 -23
83 -98 126 -184 107 -29 -6 -53 -22 -87 -60 -28 -29 -48 -45 -48 -36 0 27 -60
85 -98 96 -46 12 -48 12 -97 -5z"/>
<path d="M3084 8451 c-42 -11 -51 -17 -85 -63 l-29 -41 0 51 0 52 -40 0 -40 0
0 -425 0 -425 40 0 40 0 0 155 c0 85 2 155 5 155 3 0 19 -16 36 -35 55 -62
145 -67 215 -13 41 32 52 46 82 108 25 50 27 65 27 175 0 104 -3 127 -23 170
-49 106 -136 158 -228 136z m111 -122 c85 -75 88 -283 6 -370 -34 -35 -43 -39
-85 -39 -98 0 -149 75 -148 215 0 51 6 95 17 122 41 101 138 135 210 72z"/>
<path d="M4049 8447 c-126 -35 -187 -153 -177 -339 11 -183 93 -281 239 -281
105 -1 189 62 223 165 18 57 22 221 6 278 -37 134 -165 212 -291 177z m141
-110 c60 -40 75 -78 75 -192 0 -116 -18 -165 -74 -202 -43 -29 -113 -31 -158
-3 -56 33 -77 90 -77 200 0 110 21 167 77 200 45 28 115 26 157 -3z"/>
<path d="M5385 8445 c-23 -8 -56 -32 -77 -57 l-38 -43 0 53 0 52 -35 0 -35 0
0 -310 0 -310 39 0 39 0 4 208 c5 226 12 260 63 300 17 14 42 22 66 22 94 0
99 -14 99 -300 l0 -230 45 0 45 0 0 210 c0 230 5 259 55 298 33 26 100 29 132
7 36 -25 43 -77 43 -302 l0 -213 40 0 40 0 0 238 c0 135 -5 253 -11 275 -23
83 -98 126 -184 107 -29 -6 -53 -22 -87 -60 -28 -29 -48 -45 -48 -36 0 27 -60
85 -98 96 -46 12 -48 12 -97 -5z"/>
<path d="M6325 8451 c-115 -29 -178 -121 -192 -276 -17 -209 82 -349 247 -348
103 0 168 42 209 133 l20 45 -42 5 c-37 4 -44 2 -58 -20 -31 -48 -57 -64 -117
-68 -47 -3 -63 0 -92 20 -39 26 -80 98 -80 140 l0 28 196 0 197 0 -6 75 c-8
115 -61 211 -137 250 -34 17 -108 26 -145 16z m130 -111 c34 -21 65 -73 65
-109 0 -20 -4 -21 -150 -21 -113 0 -150 3 -150 13 1 31 42 98 72 117 44 27
120 27 163 0z"/>
<path d="M7045 8451 c-41 -10 -66 -25 -94 -55 -33 -35 -41 -33 -41 14 0 39 -1
40 -35 40 l-35 0 0 -310 0 -310 39 0 39 0 4 208 c4 232 12 267 70 302 40 24
105 26 137 4 45 -32 51 -67 51 -299 l0 -215 40 0 40 0 0 248 c0 240 -1 250
-23 292 -34 64 -118 100 -192 81z"/>
<path d="M11382 8448 c-66 -15 -135 -86 -157 -162 -23 -79 -23 -213 -1 -291
50 -168 242 -227 360 -109 34 35 53 70 65 123 l9 41 -43 0 c-40 0 -43 -2 -49
-31 -3 -17 -21 -46 -40 -65 -29 -29 -41 -34 -82 -34 -100 0 -146 59 -152 198
-8 161 43 242 151 242 42 0 54 -5 83 -34 19 -19 34 -41 34 -50 0 -12 10 -16
46 -16 42 0 45 1 39 23 -28 94 -79 149 -155 166 -52 12 -51 12 -108 -1z"/>
<path d="M12001 8450 c-63 -13 -115 -51 -140 -102 -31 -64 -28 -76 17 -80 34
-3 39 0 55 33 22 45 52 59 123 59 92 0 134 -35 134 -111 0 -36 -14 -42 -142
-64 -109 -19 -144 -33 -180 -71 -51 -55 -62 -128 -29 -200 46 -101 199 -120
307 -38 24 19 46 34 48 34 2 0 6 -18 10 -40 6 -40 7 -40 51 -40 l45 0 -12 28
c-6 15 -14 125 -17 257 -7 259 -12 280 -79 314 -46 23 -132 33 -191 21z m187
-381 c-9 -92 -74 -149 -170 -149 -49 0 -63 4 -83 25 -32 32 -33 78 -2 109 17
17 44 27 98 36 41 6 88 15 104 20 56 15 58 14 53 -41z"/>
<path d="M13399 8447 c-126 -35 -187 -153 -177 -339 11 -183 93 -281 239 -281
105 -1 189 62 223 165 18 57 22 221 6 278 -37 134 -165 212 -291 177z m141
-110 c60 -40 75 -78 75 -192 0 -116 -18 -165 -74 -202 -43 -29 -113 -31 -158
-3 -56 33 -77 90 -77 200 0 110 21 167 77 200 45 28 115 26 157 -3z"/>
<path d="M14135 8451 c-41 -10 -66 -25 -94 -55 -33 -35 -41 -33 -41 14 0 39
-1 40 -35 40 l-35 0 0 -310 0 -310 39 0 39 0 4 208 c4 232 12 267 70 302 40
24 105 26 137 4 45 -32 51 -67 51 -299 l0 -215 40 0 40 0 0 248 c0 240 -1 250
-23 292 -34 64 -118 100 -192 81z"/>
<path d="M16385 8451 c-41 -10 -66 -25 -94 -55 -33 -35 -41 -33 -41 14 0 39
-1 40 -35 40 l-35 0 0 -310 0 -310 39 0 39 0 4 208 c4 232 12 267 70 302 40
24 105 26 137 4 45 -32 51 -67 51 -299 l0 -215 40 0 40 0 0 248 c0 240 -1 250
-23 292 -34 64 -118 100 -192 81z"/>
<path d="M17404 8446 c-17 -8 -42 -31 -55 -52 l-24 -39 -3 48 c-3 46 -4 47
-38 47 l-34 0 0 -310 0 -310 39 0 39 0 4 213 c5 220 10 251 50 295 23 24 85
31 105 11 8 -8 15 2 26 35 15 42 14 47 -1 55 -34 17 -77 20 -108 7z"/>
<path d="M17865 8451 c-115 -29 -178 -121 -192 -276 -17 -209 82 -349 247
-348 103 0 168 42 209 133 l20 45 -42 5 c-37 4 -44 2 -58 -20 -31 -48 -57 -64
-117 -68 -47 -3 -63 0 -92 20 -39 26 -80 98 -80 140 l0 28 196 0 197 0 -6 75
c-8 115 -61 211 -137 250 -34 17 -108 26 -145 16z m130 -111 c34 -21 65 -73
65 -109 0 -20 -4 -21 -150 -21 -113 0 -150 3 -150 13 1 31 42 98 72 117 44 27
120 27 163 0z"/>
<path d="M18574 8451 c-42 -11 -51 -17 -85 -63 l-29 -41 0 51 0 52 -40 0 -40
0 0 -425 0 -425 40 0 40 0 0 155 c0 85 2 155 5 155 3 0 19 -16 36 -35 55 -62
145 -67 215 -13 41 32 52 46 82 108 25 50 27 65 27 175 0 104 -3 127 -23 170
-49 106 -136 158 -228 136z m111 -122 c85 -75 88 -283 6 -370 -34 -35 -43 -39
-85 -39 -98 0 -149 75 -148 215 0 51 6 95 17 122 41 101 138 135 210 72z"/>
<path d="M19214 8446 c-17 -8 -42 -31 -55 -52 l-24 -39 -3 48 c-3 46 -4 47
-38 47 l-34 0 0 -310 0 -310 39 0 39 0 4 213 c5 220 10 251 50 295 23 24 85
31 105 11 8 -8 15 2 26 35 15 42 14 47 -1 55 -34 17 -77 20 -108 7z"/>
<path d="M19665 8451 c-115 -29 -178 -121 -192 -276 -17 -209 82 -349 247
-348 103 0 168 42 209 133 l20 45 -42 5 c-37 4 -44 2 -58 -20 -31 -48 -57 -64
-117 -68 -47 -3 -63 0 -92 20 -39 26 -80 98 -80 140 l0 28 196 0 197 0 -6 75
c-8 115 -61 211 -137 250 -34 17 -108 26 -145 16z m130 -111 c34 -21 65 -73
65 -109 0 -20 -4 -21 -150 -21 -113 0 -150 3 -150 13 1 31 42 98 72 117 44 27
120 27 163 0z"/>
<path d="M20385 8451 c-41 -10 -66 -25 -94 -55 -33 -35 -41 -33 -41 14 0 39
-1 40 -35 40 l-35 0 0 -310 0 -310 39 0 39 0 4 208 c4 232 12 267 70 302 40
24 105 26 137 4 45 -32 51 -67 51 -299 l0 -215 40 0 40 0 0 248 c0 240 -1 250
-23 292 -34 64 -118 100 -192 81z"/>
<path d="M21025 8451 c-115 -29 -178 -121 -192 -276 -17 -209 82 -349 247
-348 103 0 168 42 209 133 l20 45 -42 5 c-37 4 -44 2 -58 -20 -31 -48 -57 -64
-117 -68 -47 -3 -63 0 -92 20 -39 26 -80 98 -80 140 l0 28 196 0 197 0 -6 75
c-8 115 -61 211 -137 250 -34 17 -108 26 -145 16z m130 -111 c34 -21 65 -73
65 -109 0 -20 -4 -21 -150 -21 -113 0 -150 3 -150 13 1 31 42 98 72 117 44 27
120 27 163 0z"/>
<path d="M22364 8446 c-17 -8 -42 -31 -55 -52 l-24 -39 -3 48 c-3 46 -4 47
-38 47 l-34 0 0 -310 0 -310 39 0 39 0 4 213 c5 220 10 251 50 295 23 24 85
31 105 11 8 -8 15 2 26 35 15 42 14 47 -1 55 -34 17 -77 20 -108 7z"/>
<path d="M22767 8446 c-57 -16 -84 -38 -108 -91 -24 -51 -23 -99 0 -152 23
-49 71 -78 191 -113 102 -30 120 -42 120 -84 0 -26 -8 -41 -32 -61 -29 -25
-38 -27 -101 -23 -63 3 -72 7 -98 36 -16 18 -29 40 -29 50 0 15 -7 17 -41 14
-41 -4 -41 -4 -36 -40 18 -110 139 -179 264 -152 114 26 178 122 154 231 -15
69 -57 99 -194 143 -77 25 -121 44 -127 56 -30 56 13 100 96 100 66 0 100 -15
116 -52 11 -24 18 -28 55 -28 l42 0 -14 46 c-16 53 -47 91 -90 109 -49 21
-116 25 -168 11z"/>
<path d="M24484 8451 c-42 -11 -51 -17 -85 -63 l-29 -41 0 51 0 52 -40 0 -40
0 0 -425 0 -425 40 0 40 0 0 155 c0 85 2 155 5 155 3 0 19 -16 36 -35 55 -62
145 -67 215 -13 41 32 52 46 82 108 25 50 27 65 27 175 0 104 -3 127 -23 170
-49 106 -136 158 -228 136z m111 -122 c85 -75 88 -283 6 -370 -34 -35 -43 -39
-85 -39 -98 0 -149 75 -148 215 0 51 6 95 17 122 41 101 138 135 210 72z"/>
<path d="M4535 8438 c2 -7 47 -145 100 -305 l97 -293 -17 -52 c-25 -75 -49
-98 -102 -98 -42 0 -43 -1 -43 -32 0 -48 13 -60 58 -62 95 -2 124 52 270 512
l110 342 -42 0 -41 0 -45 -142 c-24 -79 -58 -192 -76 -253 -18 -60 -35 -103
-37 -95 -3 8 -22 71 -42 140 -20 69 -52 176 -71 238 l-35 112 -44 0 c-31 0
-43 -4 -40 -12z"/>
<path d="M10550 8213 c1 -248 7 -291 47 -335 70 -77 218 -65 270 23 25 41 33
36 33 -21 l0 -50 35 0 35 0 0 310 0 310 -39 0 -39 0 -4 -212 c-3 -180 -6 -218
-21 -246 -54 -99 -198 -95 -227 6 -5 20 -10 130 -10 245 l0 207 -40 0 -40 0 0
-237z"/>
<path d="M12920 8140 l0 -310 40 0 40 0 0 310 0 310 -40 0 -40 0 0 -310z"/>
<path d="M21540 8213 c1 -248 7 -291 47 -335 70 -77 218 -65 270 23 25 41 33
36 33 -21 l0 -50 35 0 35 0 0 310 0 310 -39 0 -39 0 -4 -212 c-3 -180 -6 -218
-21 -246 -54 -99 -198 -95 -227 6 -5 20 -10 130 -10 245 l0 207 -40 0 -40 0 0
-237z"/>
<path d="M23960 8140 l0 -310 40 0 40 0 0 310 0 310 -40 0 -40 0 0 -310z"/>
</g>
</svg>
