<svg xmlns="http://www.w3.org/2000/svg" width="1920" height="825" viewBox="0 0 1920 825">
  <g id="Group_1177" data-name="Group 1177" transform="translate(0 -1963)">
    <g id="Rectangle_16" data-name="Rectangle 16" transform="translate(0 1963)" fill="#767575" stroke="#707070" stroke-width="1">
      <rect width="1920" height="825" stroke="none"/>
      <rect x="0.5" y="0.5" width="1919" height="824" fill="none"/>
    </g>
    <g id="Group_29" data-name="Group 29" transform="translate(-569.234 1933.958)" style="mix-blend-mode: overlay;isolation: isolate">
      <circle id="Ellipse_1" data-name="Ellipse 1" cx="2.222" cy="2.222" r="2.222" transform="translate(698.521 93.042)" fill="#fff"/>
      <circle id="Ellipse_2" data-name="Ellipse 2" cx="2.222" cy="2.222" r="2.222" transform="translate(727.504 93.042)" fill="#fff"/>
      <circle id="Ellipse_3" data-name="Ellipse 3" cx="2.222" cy="2.222" r="2.222" transform="translate(698.521 121.772)" fill="#fff"/>
      <circle id="Ellipse_4" data-name="Ellipse 4" cx="2.222" cy="2.222" r="2.222" transform="translate(727.504 121.772)" fill="#fff"/>
      <path id="Path_1" data-name="Path 1" d="M702.965,152.725a2.222,2.222,0,1,1-2.222-2.222A2.222,2.222,0,0,1,702.965,152.725Z" fill="#fff"/>
      <path id="Path_2" data-name="Path 2" d="M731.948,152.725a2.222,2.222,0,1,1-2.222-2.222A2.222,2.222,0,0,1,731.948,152.725Z" fill="#fff"/>
      <path id="Path_3" data-name="Path 3" d="M702.965,181.455a2.222,2.222,0,1,1-2.222-2.222A2.222,2.222,0,0,1,702.965,181.455Z" fill="#fff"/>
      <path id="Path_4" data-name="Path 4" d="M731.948,181.455a2.222,2.222,0,1,1-2.222-2.222A2.222,2.222,0,0,1,731.948,181.455Z" fill="#fff"/>
      <circle id="Ellipse_5" data-name="Ellipse 5" cx="2.222" cy="2.222" r="2.222" transform="translate(698.521 207.963)" fill="#fff"/>
      <circle id="Ellipse_6" data-name="Ellipse 6" cx="2.222" cy="2.222" r="2.222" transform="translate(727.504 207.963)" fill="#fff"/>
      <circle id="Ellipse_7" data-name="Ellipse 7" cx="2.222" cy="2.222" r="2.222" transform="translate(698.521 236.694)" fill="#fff"/>
      <circle id="Ellipse_8" data-name="Ellipse 8" cx="2.222" cy="2.222" r="2.222" transform="translate(727.504 236.694)" fill="#fff"/>
      <path id="Path_5" data-name="Path 5" d="M702.965,267.646a2.222,2.222,0,1,1-2.222-2.222A2.222,2.222,0,0,1,702.965,267.646Z" fill="#fff"/>
      <path id="Path_6" data-name="Path 6" d="M731.948,267.646a2.222,2.222,0,1,1-2.222-2.222A2.222,2.222,0,0,1,731.948,267.646Z" fill="#fff"/>
    </g>
  </g>
</svg>
